<svg xmlns="http://www.w3.org/2000/svg" width="44" height="48" viewBox="0 0 44 48"><defs><style>.a{fill:#d8001a;}</style></defs><g transform="translate(-2)"><path class="a" d="M36,48H12a1,1,0,0,1-1-.923L9.07,21.946A8.011,8.011,0,0,1,2,14a8.2,8.2,0,0,1,8.032-8.151,6.913,6.913,0,0,1,2.636.52C14.072,2.509,18.439,0,24,0c5.224,0,8.878,2.112,11.14,6.45a6.928,6.928,0,0,1,2.828-.6A8.2,8.2,0,0,1,46,14a8.011,8.011,0,0,1-7.07,7.946L37,47.077A1,1,0,0,1,36,48ZM12.926,46H35.073L37,20.923A1,1,0,0,1,38,20a6.006,6.006,0,0,0,6-6,6.255,6.255,0,0,0-6.032-6.151,4.876,4.876,0,0,0-2.724.817,1,1,0,0,1-1.464-.432C31.9,3.981,28.791,2,24,2c-5.157,0-9.059,2.415-9.71,6.009a1,1,0,0,1-1.533.657,4.876,4.876,0,0,0-2.724-.817A6.255,6.255,0,0,0,4,14a6.006,6.006,0,0,0,6,6,1,1,0,0,1,1,.923Z"/><path class="a" d="M36.625,40H11.375a1,1,0,0,1,0-2h25.25a1,1,0,0,1,0,2Z"/><path class="a" d="M19,40a1,1,0,0,1-1-1V31a1,1,0,0,1,2,0v8A1,1,0,0,1,19,40Z"/><path class="a" d="M24,40a1,1,0,0,1-1-1V29a1,1,0,0,1,2,0V39A1,1,0,0,1,24,40Z"/><path class="a" d="M29,40a1,1,0,0,1-1-1V31a1,1,0,0,1,2,0v8A1,1,0,0,1,29,40Z"/></g></svg>