<svg xmlns="http://www.w3.org/2000/svg" width="19.78" height="19.779" viewBox="0 0 19.78 19.779"><defs><style>.a{fill:#fff;}</style></defs><path class="a" d="M145.96,206.509a5.042,5.042,0,0,0-2.889-2.889,7.217,7.217,0,0,0-2.4-.459c-1.055-.046-1.391-.061-4.081-.061s-3.027.008-4.081.061a7.176,7.176,0,0,0-2.4.459,5.042,5.042,0,0,0-2.889,2.889,7.217,7.217,0,0,0-.459,2.4c-.046,1.055-.061,1.391-.061,4.081s.008,3.027.061,4.081a7.176,7.176,0,0,0,.459,2.4,5.042,5.042,0,0,0,2.889,2.889,7.217,7.217,0,0,0,2.4.459c1.055.046,1.391.061,4.081.061s3.027-.008,4.081-.061a7.176,7.176,0,0,0,2.4-.459,5.042,5.042,0,0,0,2.889-2.889,7.216,7.216,0,0,0,.459-2.4c.046-1.055.061-1.391.061-4.081s-.008-3.027-.061-4.081A7.175,7.175,0,0,0,145.96,206.509Zm-1.322,10.478a5.406,5.406,0,0,1-.344,1.834,3.063,3.063,0,0,1-.741,1.139,3.1,3.1,0,0,1-1.139.741,5.451,5.451,0,0,1-1.834.344c-1.047.046-1.353.061-4,.061s-2.958-.008-4-.061a5.406,5.406,0,0,1-1.834-.344,3.063,3.063,0,0,1-1.139-.741,3.1,3.1,0,0,1-.741-1.139,5.45,5.45,0,0,1-.344-1.834c-.046-1.047-.061-1.36-.061-4s.008-2.958.061-4a5.405,5.405,0,0,1,.344-1.834,3.063,3.063,0,0,1,.741-1.139,3.1,3.1,0,0,1,1.139-.741,5.451,5.451,0,0,1,1.834-.344c1.047-.046,1.36-.061,4-.061s2.958.008,4,.061a5.406,5.406,0,0,1,1.834.344,3.063,3.063,0,0,1,1.139.741,3.1,3.1,0,0,1,.741,1.139,5.451,5.451,0,0,1,.344,1.834c.046,1.047.061,1.36.061,4S144.684,215.948,144.638,216.987Z" transform="translate(-126.7 -203.1)"/><path class="a" d="M194.582,266a5.082,5.082,0,1,0,5.082,5.082A5.085,5.085,0,0,0,194.582,266Zm0,8.384a3.3,3.3,0,1,1,3.3-3.3A3.3,3.3,0,0,1,194.582,274.384Z" transform="translate(-184.7 -261.193)"/><circle class="a" cx="1.185" cy="1.185" r="1.185" transform="translate(13.979 3.424)"/></svg>