<svg xmlns="http://www.w3.org/2000/svg" width="51.02" height="51.02" viewBox="0 0 51.02 51.02"><defs><style>.a{fill:#d8001a;}</style></defs><path class="a" d="M176.38,211.892a13.006,13.006,0,0,0-7.452-7.452,18.614,18.614,0,0,0-6.19-1.183c-2.721-.118-3.588-.158-10.527-.158s-7.807.02-10.527.158a18.509,18.509,0,0,0-6.19,1.183,13.006,13.006,0,0,0-7.452,7.452,18.615,18.615,0,0,0-1.183,6.19c-.118,2.721-.158,3.588-.158,10.527s.02,7.807.158,10.527a18.509,18.509,0,0,0,1.183,6.19,13.006,13.006,0,0,0,7.452,7.452,18.614,18.614,0,0,0,6.19,1.183c2.721.118,3.588.158,10.527.158s7.807-.02,10.527-.158a18.508,18.508,0,0,0,6.19-1.183,13.006,13.006,0,0,0,7.452-7.452,18.613,18.613,0,0,0,1.183-6.19c.118-2.721.158-3.588.158-10.527s-.02-7.807-.158-10.527A18.508,18.508,0,0,0,176.38,211.892Zm-3.411,27.028a13.944,13.944,0,0,1-.887,4.731,7.9,7.9,0,0,1-1.912,2.937,7.986,7.986,0,0,1-2.937,1.912,14.06,14.06,0,0,1-4.731.887c-2.7.118-3.489.158-10.31.158s-7.629-.02-10.31-.158a13.944,13.944,0,0,1-4.731-.887,7.9,7.9,0,0,1-2.937-1.912,7.985,7.985,0,0,1-1.912-2.937,14.059,14.059,0,0,1-.887-4.731c-.118-2.7-.158-3.509-.158-10.31s.02-7.629.158-10.31a13.943,13.943,0,0,1,.887-4.731,7.9,7.9,0,0,1,1.912-2.937,7.986,7.986,0,0,1,2.937-1.912,14.062,14.062,0,0,1,4.731-.887c2.7-.118,3.509-.158,10.31-.158s7.629.02,10.31.158a13.946,13.946,0,0,1,4.731.887,7.9,7.9,0,0,1,2.937,1.912,7.986,7.986,0,0,1,1.912,2.937,14.06,14.06,0,0,1,.887,4.731c.118,2.7.158,3.509.158,10.31S173.087,236.239,172.969,238.92Z" transform="translate(-126.7 -203.1)"/><path class="a" d="M202.61,266a13.11,13.11,0,1,0,13.11,13.11A13.117,13.117,0,0,0,202.61,266Zm0,21.626a8.516,8.516,0,1,1,8.517-8.516A8.519,8.519,0,0,1,202.61,287.626Z" transform="translate(-177.12 -253.6)"/><ellipse class="a" cx="3.056" cy="3.056" rx="3.056" ry="3.056" transform="translate(36.057 8.832)"/></svg>